<svg width="128" height="128" viewBox="0 0 128 128" fill="none" xmlns="http://www.w3.org/2000/svg">
  <defs>
    <linearGradient id="bg" x1="18" y1="16" x2="112" y2="118" gradientUnits="userSpaceOnUse">
      <stop stop-color="#1F7AFF"/>
      <stop offset="0.55" stop-color="#3155F6"/>
      <stop offset="1" stop-color="#7C4DFF"/>
    </linearGradient>
    <linearGradient id="fish" x1="31" y1="45" x2="95" y2="82" gradientUnits="userSpaceOnUse">
      <stop stop-color="#FFFFFF"/>
      <stop offset="1" stop-color="#DDE8FF"/>
    </linearGradient>
    <filter id="shadow" x="11" y="10" width="106" height="108" filterUnits="userSpaceOnUse" color-interpolation-filters="sRGB">
      <feFlood flood-opacity="0" result="BackgroundImageFix"/>
      <feColorMatrix in="SourceAlpha" type="matrix" values="0 0 0 0 0 0 0 0 0 0 0 0 0 0 0 0 0 0 127 0" result="hardAlpha"/>
      <feOffset dy="8"/>
      <feGaussianBlur stdDeviation="8"/>
      <feColorMatrix type="matrix" values="0 0 0 0 0.12 0 0 0 0 0.29 0 0 0 0 0.95 0 0 0 0.28 0"/>
      <feBlend mode="normal" in2="BackgroundImageFix" result="effect1_dropShadow"/>
      <feBlend mode="normal" in="SourceGraphic" in2="effect1_dropShadow" result="shape"/>
    </filter>
  </defs>
  <g filter="url(#shadow)">
    <rect x="20" y="16" width="88" height="88" rx="22" fill="url(#bg)"/>
  </g>
  <path d="M32 66C44.4 49.2 62.7 42.8 83.4 47.8C89.2 49.2 95.1 52.2 101 57C96.1 62.1 91 65.5 85.8 67.2C64.6 74.2 45.9 74.1 32 66Z" fill="url(#fish)"/>
  <path d="M82.5 47.6L99 35.5C101.6 33.6 105.2 35.5 105.1 38.7L104.5 55.8C98.8 51.4 91.5 48.7 82.5 47.6Z" fill="#F7FAFF"/>
  <path d="M82.5 84.4L99 96.5C101.6 98.4 105.2 96.5 105.1 93.3L104.5 76.2C98.8 80.6 91.5 83.3 82.5 84.4Z" fill="#DDE8FF"/>
  <circle cx="49" cy="63" r="4.3" fill="#2455F6"/>
  <path d="M66 36L69.6 45.2L79 48.7L69.6 52.3L66 61.5L62.4 52.3L53 48.7L62.4 45.2L66 36Z" fill="white"/>
  <path d="M40 83L42.2 88.7L48 91L42.2 93.2L40 99L37.8 93.2L32 91L37.8 88.7L40 83Z" fill="#DDE8FF"/>
</svg>
